<svg width="68" height="68" viewBox="0 0 68 68" fill="none" xmlns="http://www.w3.org/2000/svg">
<rect width="68" height="68" fill="#FF458D"/>
<path d="M11.8408 34C11.8408 29.9818 12.8306 26.2738 14.8101 22.8761C16.7897 19.4783 19.4784 16.7897 22.8761 14.8101C26.2738 12.8306 29.9818 11.8408 34 11.8408C38.0182 11.8408 41.7262 12.8306 45.1239 14.8101C48.5216 16.7897 51.2103 19.4783 53.1898 22.8761C55.1694 26.2738 56.1592 29.9818 56.1592 34C56.1592 38.0182 55.1694 41.7261 53.1898 45.1239C51.2103 48.5216 48.5216 51.2103 45.1239 53.1898C41.7262 55.1694 38.0182 56.1592 34 56.1592C29.9818 56.1592 26.2738 55.1694 22.8761 53.1898C19.4784 51.2103 16.7897 48.5216 14.8101 45.1239C12.8306 41.7261 11.8408 38.0182 11.8408 34ZM15.5192 34C15.5192 38.6091 17.0704 42.6716 20.1727 46.1875C21.5909 43.4102 23.8363 40.7659 26.9091 38.2546C29.9818 35.7432 32.9807 34.1625 35.9057 33.5125C35.4625 32.4784 35.0341 31.5477 34.6204 30.7204C29.5386 32.3455 24.0432 33.1579 18.134 33.1579C16.9817 33.1579 16.1249 33.1432 15.5636 33.1136C15.5636 33.2318 15.5562 33.3795 15.5414 33.5568C15.5266 33.7341 15.5192 33.8818 15.5192 34ZM16.0954 29.4352C16.7454 29.4943 17.7056 29.5238 18.9761 29.5238C23.9102 29.5238 28.5932 28.8591 33.025 27.5295C30.7796 23.5409 28.3125 20.217 25.6238 17.5579C23.2898 18.7397 21.288 20.3795 19.6187 22.4772C17.9494 24.5749 16.775 26.8943 16.0954 29.4352ZM22.6988 48.5807C26.0375 51.1807 29.8046 52.4807 34 52.4807C36.1864 52.4807 38.358 52.0671 40.5148 51.2398C39.9239 46.1875 38.7716 41.2978 37.058 36.5705C34.3398 37.1614 31.5994 38.6534 28.8369 41.0466C26.0744 43.4398 24.0284 45.9512 22.6988 48.5807ZM29.4795 16.1397C32.0795 18.8284 34.4875 22.1818 36.7034 26.2C40.7216 24.5159 43.75 22.3738 45.7887 19.7738C42.3614 16.9374 38.4318 15.5192 34 15.5192C32.4932 15.5192 30.9863 15.7261 29.4795 16.1397ZM38.2989 29.3466C38.7421 30.292 39.2444 31.4886 39.8057 32.9363C41.9921 32.7295 44.3705 32.6261 46.9409 32.6261C48.7728 32.6261 50.5899 32.6704 52.3921 32.7591C52.1558 28.7409 50.708 25.1659 48.0489 22.034C46.1285 24.9 42.8785 27.3375 38.2989 29.3466ZM40.9137 36.0386C42.4205 40.4114 43.4398 44.9023 43.9716 49.5114C46.3057 48.0046 48.2114 46.0693 49.6887 43.7057C51.166 41.3421 52.0524 38.7864 52.3478 36.0386C50.191 35.8909 48.2262 35.817 46.4534 35.817C44.8285 35.817 42.9819 35.8909 40.9137 36.0386Z" fill="white"/>
</svg>
