<svg width="35" height="35" viewBox="0 0 35 35" fill="none" xmlns="http://www.w3.org/2000/svg">
<path d="M18.551 20.5491V29.4636C18.551 30.4941 18.1417 31.4824 17.413 32.211C16.6843 32.9397 15.696 33.3491 14.6655 33.3491H5.37131C4.34068 33.3491 3.35223 32.9398 2.62333 32.2111C1.89443 31.4825 1.48475 30.4942 1.48438 29.4636V7.36935C1.48475 6.33859 1.89439 5.35015 2.62325 4.62129C3.35211 3.89243 4.34054 3.4828 5.37131 3.48242H8.95104" stroke="#7051ef" stroke-width="2.2" stroke-linecap="round" stroke-linejoin="round"/>
<path d="M29.2173 1.34863H17.484C16.3524 1.34863 15.2671 1.79816 14.467 2.59831C13.6668 3.39847 13.2173 4.48371 13.2173 5.6153V12.0153C13.2173 13.1469 13.6668 14.2321 14.467 15.0323C15.2671 15.8324 16.3524 16.282 17.484 16.282H22.8173V21.6153L28.1506 16.282H29.2173C30.3489 16.282 31.4341 15.8324 32.2343 15.0323C33.0344 14.2321 33.484 13.1469 33.484 12.0153V5.6153C33.484 4.48371 33.0344 3.39847 32.2343 2.59831C31.4341 1.79816 30.3489 1.34863 29.2173 1.34863V1.34863Z" stroke="#7051ef" stroke-width="2.2" stroke-linecap="round" stroke-linejoin="round"/>
</svg>
