<svg width="25" height="24" viewBox="0 0 25 24" fill="none" xmlns="http://www.w3.org/2000/svg">
<path d="M22.6543 6.125H3.1543C2.32587 6.125 1.6543 6.79657 1.6543 7.625V21.125C1.6543 21.9534 2.32587 22.625 3.1543 22.625H22.6543C23.4827 22.625 24.1543 21.9534 24.1543 21.125V7.625C24.1543 6.79657 23.4827 6.125 22.6543 6.125Z" stroke="#3A395E" stroke-width="1.5" stroke-linecap="round" stroke-linejoin="round"/>
<path d="M16.2463 2.65C16.1466 2.35146 15.9556 2.09183 15.7002 1.90788C15.4448 1.72392 15.138 1.62496 14.8233 1.625H10.9853C10.6706 1.62496 10.3638 1.72392 10.1084 1.90788C9.85301 2.09183 9.66196 2.35146 9.5623 2.65L8.4043 6.125H17.4043L16.2463 2.65Z" stroke="#3A395E" stroke-width="1.5" stroke-linecap="round" stroke-linejoin="round"/>
<path d="M4.6543 6.125V4.625" stroke="#3A395E" stroke-width="1.5" stroke-linecap="round" stroke-linejoin="round"/>
<path d="M21.1543 6.125V4.625" stroke="#3A395E" stroke-width="1.5" stroke-linecap="round" stroke-linejoin="round"/>
</svg>
