<svg width="31" height="36" viewBox="0 0 31 36" fill="none" xmlns="http://www.w3.org/2000/svg">
<path d="M22.2308 34.3464H4.02308C3.48652 34.3464 2.97195 34.1332 2.59255 33.7538C2.21315 33.3744 2 32.8598 2 32.3233V10.5752" stroke="#7051ef" stroke-width="2.2" stroke-linecap="round" stroke-linejoin="round"/>
<path d="M29.2885 25.4799C29.3033 26.1217 29.0633 26.7433 28.621 27.2087C28.1787 27.674 27.57 27.9452 26.9282 27.9628H10.4064C9.76462 27.9452 9.15596 27.674 8.71362 27.2087C8.27128 26.7433 8.03129 26.1217 8.04615 25.4799V4.48299C8.03129 3.84113 8.27128 3.21952 8.71362 2.75418C9.15596 2.28883 9.76462 2.01766 10.4064 2H22.41C22.7231 2.00157 23.0326 2.06683 23.3196 2.19181C23.6067 2.31678 23.8653 2.49886 24.0797 2.72696L28.5966 7.47985C29.043 7.95427 29.2906 8.58175 29.2885 9.23318V25.4799Z" stroke="#7051ef" stroke-width="2.2" stroke-linecap="round" stroke-linejoin="round"/>
</svg>
