<svg width="181" height="180" viewBox="0 0 181 180" fill="none" xmlns="http://www.w3.org/2000/svg">
<rect x="0.5" width="180" height="180" fill="#E5E1FF"/>
<rect x="126.933" y="24.0823" width="18.8005" height="131.836" rx="9.40027" fill="#F8F8FF"/>
<path d="M112.396 76.9726C112.396 70.0807 117.984 64.4937 124.875 64.4937H147.79C154.682 64.4937 160.269 70.0807 160.269 76.9726V103.028C160.269 109.92 154.682 115.507 147.79 115.507H124.875C117.984 115.507 112.396 109.92 112.396 103.028V76.9726Z" fill="white"/>
<rect x="116.843" y="70.0364" width="38.9807" height="39.9273" rx="9.07561" fill="#E4E1FF"/>
<rect x="120.874" y="83.5791" width="30.9166" height="21.5164" rx="4.53781" fill="#9079EE"/>
<rect x="120.874" y="74.9048" width="17.3377" height="5.48978" rx="2.74489" fill="#A395D8"/>
<rect x="24.9209" y="26.3433" width="77.683" height="127.314" rx="15" fill="white"/>
<rect x="31.3945" y="33.8958" width="64.7358" height="113.288" rx="10" fill="#E4E1FF"/>
<rect x="37.5742" y="126.874" width="52.3769" height="12.0366" rx="4.5" fill="#7051ef"/>
<rect x="37.5742" y="45.4551" width="27.9776" height="7.34433" rx="3.67216" fill="#A395D8"/>
<rect x="37.5742" y="56.5024" width="52.3769" height="64.6065" rx="10" fill="#9079EE"/>
<rect x="46.917" y="29.0405" width="34.5258" height="9.71037" rx="4.85519" fill="white"/>
</svg>
