<svg width="252" height="37" viewBox="0 0 252 37" fill="none" xmlns="http://www.w3.org/2000/svg">
<path d="M88.1449 27.8029C86.1321 27.8029 84.3577 27.3659 82.8217 26.4919C81.2856 25.6179 80.0674 24.3997 79.1669 22.8371C78.2929 21.2746 77.856 19.4869 77.856 17.4742C77.856 15.4614 78.2929 13.6738 79.1669 12.1112C80.0674 10.5487 81.2856 9.33042 82.8217 8.45645C84.3577 7.58249 86.1321 7.14551 88.1449 7.14551C90.6609 7.14551 92.7796 7.8076 94.501 9.13179C96.2225 10.4295 97.3215 12.2304 97.7982 14.5345H92.4353C92.1704 13.5811 91.6408 12.8395 90.8462 12.3098C90.0782 11.7537 89.1645 11.4756 88.1052 11.4756C86.7015 11.4756 85.5098 12.0053 84.5299 13.0646C83.55 14.124 83.06 15.5938 83.06 17.4742C83.06 19.3545 83.55 20.8244 84.5299 21.8837C85.5098 22.9431 86.7015 23.4728 88.1052 23.4728C89.1645 23.4728 90.0782 23.2079 90.8462 22.6782C91.6408 22.1486 92.1704 21.3938 92.4353 20.4139H97.7982C97.3215 22.6385 96.2225 24.4262 94.501 25.7768C92.7796 27.1275 90.6609 27.8029 88.1449 27.8029Z" fill="#3A395E"/>
<path d="M110.972 27.8029C109.065 27.8029 107.343 27.3659 105.807 26.4919C104.298 25.6179 103.093 24.4129 102.192 22.8769C101.318 21.3143 100.881 19.5134 100.881 17.4742C100.881 15.4349 101.332 13.6473 102.232 12.1112C103.132 10.5487 104.337 9.33042 105.847 8.45645C107.383 7.58249 109.105 7.14551 111.011 7.14551C112.892 7.14551 114.587 7.58249 116.096 8.45645C117.632 9.33042 118.837 10.5487 119.711 12.1112C120.612 13.6473 121.062 15.4349 121.062 17.4742C121.062 19.5134 120.612 21.3143 119.711 22.8769C118.837 24.4129 117.632 25.6179 116.096 26.4919C114.56 27.3659 112.852 27.8029 110.972 27.8029ZM110.972 23.3933C112.296 23.3933 113.448 22.9034 114.428 21.9235C115.408 20.9171 115.898 19.434 115.898 17.4742C115.898 15.5144 115.408 14.0445 114.428 13.0646C113.448 12.0582 112.309 11.5551 111.011 11.5551C109.661 11.5551 108.495 12.0582 107.516 13.0646C106.562 14.0445 106.085 15.5144 106.085 17.4742C106.085 19.434 106.562 20.9171 107.516 21.9235C108.495 22.9034 109.647 23.3933 110.972 23.3933Z" fill="#3A395E"/>
<path d="M124.814 27.3261V7.62221H129.303L129.74 10.2838C130.375 9.33042 131.21 8.57563 132.243 8.01947C133.302 7.43683 134.52 7.14551 135.897 7.14551C138.943 7.14551 141.101 8.32403 142.373 10.6811C143.088 9.59526 144.041 8.73453 145.233 8.09892C146.451 7.46331 147.775 7.14551 149.205 7.14551C151.774 7.14551 153.747 7.91354 155.125 9.4496C156.502 10.9857 157.19 13.2368 157.19 16.203V27.3261H152.105V16.6797C152.105 14.9847 151.774 13.687 151.112 12.7866C150.477 11.8861 149.484 11.4359 148.133 11.4359C146.756 11.4359 145.643 11.9391 144.796 12.9455C143.975 13.9518 143.564 15.3555 143.564 17.1564V27.3261H138.479V16.6797C138.479 14.9847 138.148 13.687 137.486 12.7866C136.824 11.8861 135.805 11.4359 134.427 11.4359C133.077 11.4359 131.978 11.9391 131.13 12.9455C130.309 13.9518 129.899 15.3555 129.899 17.1564V27.3261H124.814Z" fill="#3A395E"/>
<path d="M161.223 36.0658V7.62221H165.752L166.308 10.4427C166.944 9.56877 167.778 8.80074 168.811 8.13865C169.87 7.47655 171.234 7.14551 172.903 7.14551C174.757 7.14551 176.412 7.59573 177.868 8.49618C179.325 9.39663 180.477 10.6281 181.325 12.1907C182.172 13.7532 182.596 15.5276 182.596 17.5139C182.596 19.5002 182.172 21.2746 181.325 22.8371C180.477 24.3732 179.325 25.5915 177.868 26.4919C176.412 27.3659 174.757 27.8029 172.903 27.8029C171.42 27.8029 170.122 27.5248 169.01 26.9686C167.897 26.4125 166.997 25.6312 166.308 24.6248V36.0658H161.223ZM171.83 23.3536C173.446 23.3536 174.783 22.8107 175.842 21.7248C176.902 20.639 177.431 19.2354 177.431 17.5139C177.431 15.7925 176.902 14.3756 175.842 13.2633C174.783 12.1509 173.446 11.5948 171.83 11.5948C170.188 11.5948 168.837 12.1509 167.778 13.2633C166.745 14.3491 166.229 15.7527 166.229 17.4742C166.229 19.1956 166.745 20.6125 167.778 21.7248C168.837 22.8107 170.188 23.3536 171.83 23.3536Z" fill="#3A395E"/>
<path d="M193.137 27.8029C191.442 27.8029 190.051 27.538 188.966 27.0083C187.88 26.4522 187.072 25.7239 186.542 24.8234C186.013 23.923 185.748 22.9298 185.748 21.844C185.748 20.0166 186.463 18.5335 187.893 17.3947C189.323 16.2559 191.468 15.6865 194.328 15.6865H199.334V15.2098C199.334 13.8591 198.95 12.866 198.182 12.2304C197.414 11.5948 196.46 11.277 195.322 11.277C194.289 11.277 193.388 11.5286 192.62 12.0318C191.852 12.5085 191.376 13.2235 191.19 14.177H186.224C186.357 12.7468 186.834 11.5021 187.655 10.4427C188.502 9.38339 189.588 8.57563 190.912 8.01947C192.236 7.43683 193.719 7.14551 195.361 7.14551C198.169 7.14551 200.38 7.84733 201.996 9.25097C203.611 10.6546 204.419 12.6409 204.419 15.2098V27.3261H200.089L199.612 24.1481C199.029 25.2074 198.208 26.0814 197.149 26.77C196.116 27.4586 194.779 27.8029 193.137 27.8029ZM194.289 23.8303C195.745 23.8303 196.871 23.3536 197.665 22.4002C198.486 21.4467 199.003 20.2682 199.215 18.8646H194.885C193.534 18.8646 192.567 19.1162 191.985 19.6194C191.402 20.0961 191.111 20.692 191.111 21.407C191.111 22.1751 191.402 22.7709 191.985 23.1947C192.567 23.6184 193.335 23.8303 194.289 23.8303Z" fill="#3A395E"/>
<path d="M208.477 27.3261V7.62221H212.966L213.363 10.9592C213.972 9.79388 214.846 8.86695 215.985 8.17837C217.15 7.4898 218.514 7.14551 220.077 7.14551C222.513 7.14551 224.407 7.91354 225.757 9.4496C227.108 10.9857 227.783 13.2368 227.783 16.203V27.3261H222.699V16.6797C222.699 14.9847 222.354 13.687 221.666 12.7866C220.977 11.8861 219.904 11.4359 218.448 11.4359C217.018 11.4359 215.839 11.9391 214.912 12.9455C214.012 13.9518 213.562 15.3555 213.562 17.1564V27.3261H208.477Z" fill="#3A395E"/>
<path d="M233.655 36.0658L238.223 26.0152H237.031L229.364 7.62221H234.886L240.408 21.4865L246.168 7.62221H251.571L239.057 36.0658H233.655Z" fill="#3A395E"/>
<path d="M19.5589 32.9819C18.4185 34.1224 16.569 34.1208 15.4305 32.9784L2.05536 19.5573C0.919645 18.4177 0.921225 16.5736 2.05889 15.436L15.434 2.06084C16.5717 0.923179 18.4157 0.921597 19.5553 2.05731L32.9764 15.4325C34.1188 16.5709 34.1204 18.4204 32.98 19.5608L19.5589 32.9819Z" fill="#7051ef"/>
<path d="M37.1086 32.9764C35.9701 34.1188 34.1207 34.1204 32.9802 32.98L19.5591 19.5589C18.4187 18.4185 18.4203 16.569 19.5627 15.4305L32.9838 2.05536C34.1234 0.919645 35.9674 0.921225 37.1051 2.05889L50.4802 15.434C51.6179 16.5717 51.6195 18.4157 50.4838 19.5553L37.1086 32.9764Z" fill="#CBBEFF"/>
<path d="M50.1169 32.9787C48.9775 34.1199 47.1282 34.1199 45.9888 32.9787L32.5885 19.5573C31.4502 18.4172 31.4518 16.5702 32.592 15.4321L45.9924 2.05667C47.131 0.920184 48.9748 0.920182 50.1134 2.05667L63.5138 15.4321C64.654 16.5702 64.6556 18.4172 63.5173 19.5573L50.1169 32.9787Z" fill="#7051ef"/>
</svg>
