<svg width="224" height="36" viewBox="0 0 224 36" fill="none" xmlns="http://www.w3.org/2000/svg">
<path d="M49.8359 14.5564C49.8359 12.1812 50.3663 10.0598 51.427 8.19194C52.5108 6.30107 53.9751 4.83679 55.8199 3.79911C57.6877 2.73838 59.7746 2.20801 62.0805 2.20801C64.7785 2.20801 67.1421 2.89979 69.1713 4.28336C71.2005 5.66693 72.6187 7.58087 73.4258 10.0252H67.8569C67.3035 8.8722 66.5195 8.00747 65.5049 7.43098C64.5133 6.85449 63.3603 6.56625 62.0459 6.56625C60.6393 6.56625 59.3826 6.90061 58.2757 7.56934C57.1919 8.215 56.3387 9.13738 55.7161 10.3365C55.1166 11.5356 54.8168 12.9422 54.8168 14.5564C54.8168 16.1475 55.1166 17.5541 55.7161 18.7762C56.3387 19.9753 57.1919 20.9092 58.2757 21.578C59.3826 22.2236 60.6393 22.5465 62.0459 22.5465C63.3603 22.5465 64.5133 22.2582 65.5049 21.6817C66.5195 21.0822 67.3035 20.2059 67.8569 19.053H73.4258C72.6187 21.5203 71.2005 23.4458 69.1713 24.8294C67.1651 26.1899 64.8015 26.8701 62.0805 26.8701C59.7746 26.8701 57.6877 26.3513 55.8199 25.3136C53.9751 24.2529 52.5108 22.7886 51.427 20.9208C50.3663 19.053 49.8359 16.9315 49.8359 14.5564Z" fill="#3A395E"/>
<path d="M86.0708 26.9739C84.2261 26.9739 82.5658 26.5704 81.09 25.7633C79.6142 24.9331 78.4497 23.7686 77.5965 22.2698C76.7663 20.7709 76.3513 19.0414 76.3513 17.0814C76.3513 15.1213 76.7779 13.3919 77.6311 11.893C78.5073 10.3941 79.6949 9.24115 81.1938 8.43407C82.6926 7.60393 84.3644 7.18886 86.2092 7.18886C88.054 7.18886 89.7258 7.60393 91.2246 8.43407C92.7235 9.24115 93.8995 10.3941 94.7527 11.893C95.629 13.3919 96.0671 15.1213 96.0671 17.0814C96.0671 19.0414 95.6175 20.7709 94.7182 22.2698C93.8419 23.7686 92.6428 24.9331 91.1209 25.7633C89.622 26.5704 87.9387 26.9739 86.0708 26.9739ZM86.0708 22.754C86.9471 22.754 87.7657 22.5465 88.5267 22.1314C89.3107 21.6933 89.9333 21.0476 90.3945 20.1944C90.8557 19.3412 91.0863 18.3035 91.0863 17.0814C91.0863 15.2597 90.602 13.8646 89.6335 12.8961C88.6881 11.9045 87.5236 11.4087 86.14 11.4087C84.7565 11.4087 83.592 11.9045 82.6465 12.8961C81.7241 13.8646 81.2629 15.2597 81.2629 17.0814C81.2629 18.9031 81.7126 20.3097 82.6119 21.3013C83.5343 22.2698 84.6873 22.754 86.0708 22.754Z" fill="#3A395E"/>
<path d="M123.417 7.22345C125.769 7.22345 127.66 7.94982 129.089 9.40257C130.542 10.8323 131.268 12.8384 131.268 15.4211V26.6626H126.426V16.0783C126.426 14.5794 126.045 13.438 125.284 12.654C124.524 11.8469 123.486 11.4433 122.171 11.4433C120.857 11.4433 119.808 11.8469 119.024 12.654C118.263 13.438 117.882 14.5794 117.882 16.0783V26.6626H113.04V16.0783C113.04 14.5794 112.659 13.438 111.898 12.654C111.137 11.8469 110.1 11.4433 108.785 11.4433C107.448 11.4433 106.387 11.8469 105.603 12.654C104.842 13.438 104.462 14.5794 104.462 16.0783V26.6626H99.6193V7.50016H104.462V9.81764C105.084 9.01056 105.88 8.37642 106.848 7.91523C107.84 7.45404 108.924 7.22345 110.1 7.22345C111.599 7.22345 112.936 7.54628 114.112 8.19194C115.288 8.81455 116.199 9.71387 116.845 10.8899C117.467 9.78305 118.367 8.89526 119.543 8.22653C120.742 7.55781 122.033 7.22345 123.417 7.22345Z" fill="#3A395E"/>
<path d="M140.706 10.2673C141.329 9.39104 142.182 8.66466 143.266 8.08818C144.373 7.48863 145.629 7.18886 147.036 7.18886C148.673 7.18886 150.149 7.5924 151.463 8.39948C152.801 9.20656 153.85 10.3595 154.611 11.8584C155.395 13.3342 155.787 15.0521 155.787 17.0122C155.787 18.9723 155.395 20.7132 154.611 22.2352C153.85 23.734 152.801 24.8985 151.463 25.7287C150.149 26.5588 148.673 26.9739 147.036 26.9739C145.629 26.9739 144.384 26.6857 143.3 26.1092C142.24 25.5327 141.375 24.8063 140.706 23.93V35.7941H135.864V7.50016H140.706V10.2673ZM150.841 17.0122C150.841 15.8592 150.599 14.8677 150.114 14.0375C149.653 13.1843 149.031 12.5387 148.247 12.1005C147.486 11.6624 146.655 11.4433 145.756 11.4433C144.88 11.4433 144.05 11.6739 143.266 12.1351C142.505 12.5732 141.882 13.2189 141.398 14.0721C140.937 14.9253 140.706 15.9284 140.706 17.0814C140.706 18.2343 140.937 19.2374 141.398 20.0906C141.882 20.9438 142.505 21.601 143.266 22.0622C144.05 22.5004 144.88 22.7194 145.756 22.7194C146.655 22.7194 147.486 22.4888 148.247 22.0276C149.031 21.5664 149.653 20.9093 150.114 20.056C150.599 19.2028 150.841 18.1882 150.841 17.0122Z" fill="#3A395E"/>
<path d="M158.061 17.0122C158.061 15.0752 158.441 13.3573 159.202 11.8584C159.986 10.3595 161.035 9.20656 162.35 8.39948C163.687 7.5924 165.175 7.18886 166.812 7.18886C168.241 7.18886 169.487 7.4771 170.547 8.05359C171.631 8.63007 172.496 9.35645 173.142 10.2327V7.50016H178.019V26.6626H173.142V23.8609C172.519 24.7602 171.654 25.5096 170.547 26.1092C169.464 26.6857 168.207 26.9739 166.777 26.9739C165.163 26.9739 163.687 26.5588 162.35 25.7287C161.035 24.8985 159.986 23.734 159.202 22.2352C158.441 20.7132 158.061 18.9723 158.061 17.0122ZM173.142 17.0814C173.142 15.9053 172.911 14.9023 172.45 14.0721C171.989 13.2189 171.366 12.5732 170.582 12.1351C169.798 11.6739 168.956 11.4433 168.057 11.4433C167.158 11.4433 166.328 11.6624 165.567 12.1005C164.806 12.5387 164.183 13.1843 163.699 14.0375C163.238 14.8677 163.007 15.8592 163.007 17.0122C163.007 18.1652 163.238 19.1798 163.699 20.056C164.183 20.9093 164.806 21.5664 165.567 22.0276C166.351 22.4888 167.181 22.7194 168.057 22.7194C168.956 22.7194 169.798 22.5004 170.582 22.0622C171.366 21.601 171.989 20.9554 172.45 20.1252C172.911 19.272 173.142 18.2574 173.142 17.0814Z" fill="#3A395E"/>
<path d="M193.367 7.22345C195.65 7.22345 197.495 7.94982 198.901 9.40257C200.308 10.8323 201.011 12.8384 201.011 15.4211V26.6626H196.169V16.0783C196.169 14.5564 195.788 13.3919 195.027 12.5848C194.266 11.7546 193.229 11.3396 191.914 11.3396C190.577 11.3396 189.516 11.7546 188.732 12.5848C187.971 13.3919 187.591 14.5564 187.591 16.0783V26.6626H182.748V7.50016H187.591V9.88682C188.236 9.05667 189.055 8.41101 190.047 7.94982C191.061 7.46557 192.168 7.22345 193.367 7.22345Z" fill="#3A395E"/>
<path d="M223.949 7.50016L212.085 35.725H206.931L211.081 26.1783L203.403 7.50016H208.833L213.779 20.8862L218.795 7.50016H223.949Z" fill="#3A395E"/>
<path d="M13.5305 35.5386C6.13696 35.5386 0.166992 29.5227 0.166992 22.1751C0.166992 14.8274 6.13696 8.81152 13.5305 8.81152C20.8782 8.81152 26.8941 14.7815 26.8941 22.1751C26.8481 29.5227 20.8782 35.5386 13.5305 35.5386Z" fill="#7051ef"/>
<path d="M33.5797 0.270508H15.386C14.3611 0.270508 13.5303 1.10134 13.5303 2.12623V20.32C13.5303 21.3449 14.3611 22.1757 15.386 22.1757H33.5797C34.6046 22.1757 35.4354 21.3448 35.4354 20.32V2.12623C35.4354 1.10134 34.6046 0.270508 33.5797 0.270508Z" fill="#CBBEFF"/>
</svg>
