<svg width="82" height="82" viewBox="0 0 82 82" fill="none" xmlns="http://www.w3.org/2000/svg">
<rect width="82" height="82" fill="#1769FF"/>
<path d="M32.2877 25.9922C33.6624 25.9922 34.9157 26.1141 36.0478 26.3585C37.1799 26.6026 38.1502 27.003 38.9587 27.5585C39.7672 28.1146 40.394 28.8539 40.8387 29.7763C41.2835 30.6987 41.5059 31.8377 41.5059 33.1938C41.5059 34.6587 41.1756 35.8793 40.5154 36.8555C39.8547 37.832 38.8779 38.632 37.5843 39.256C39.3631 39.7715 40.6905 40.6738 41.5667 41.9616C42.442 43.2502 42.881 44.8034 42.881 46.6202C42.881 48.0849 42.5981 49.3533 42.0317 50.4249C41.466 51.4967 40.704 52.3713 39.7477 53.0484C38.7907 53.727 37.699 54.2284 36.4728 54.5545C35.2389 54.8806 33.9683 55.0445 32.6925 55.0422H18.7031V25.9922H32.2877ZM31.4792 37.7509C32.6113 37.7509 33.541 37.4798 34.2689 36.937C34.9967 36.3948 35.3604 35.513 35.3604 34.2925C35.3604 33.6146 35.2393 33.0583 34.9967 32.6243C34.7541 32.1906 34.4307 31.8509 34.0264 31.6072C33.622 31.3629 33.157 31.1941 32.6315 31.0984C32.0909 31.0024 31.543 30.9548 30.994 30.9562H25.0508V37.7511H31.4792V37.7509ZM31.8429 50.0785C32.4626 50.0785 33.0558 50.0173 33.6218 49.8953C34.1877 49.7731 34.6862 49.5697 35.1179 49.2847C35.5486 49.0004 35.8924 48.6135 36.1488 48.1251C36.4046 47.6371 36.5327 47.0133 36.5327 46.2535C36.5327 44.7623 36.1146 43.6976 35.2794 43.0599C34.4436 42.4225 33.3386 42.1036 31.9641 42.1036H25.0508V50.078L31.8429 50.0785V50.0785ZM50.8691 49.4683C51.7316 50.3099 52.9715 50.7295 54.5888 50.7295C55.7473 50.7295 56.7449 50.4385 57.5803 49.8549C58.4159 49.2724 58.9281 48.6549 59.1167 48.0036H64.1705C63.3622 50.526 62.1218 52.3302 60.451 53.4147C58.7794 54.5 56.7578 55.0422 54.3861 55.0422C52.742 55.0422 51.2593 54.7778 49.9387 54.2487C48.6177 53.72 47.499 52.9672 46.5833 51.9907C45.6667 51.0145 44.9591 49.8489 44.4604 48.4921C43.9615 47.1362 43.7127 45.644 43.7127 44.0165C43.7127 42.4438 43.9682 40.9791 44.4808 39.6227C44.9924 38.2668 45.7199 37.0936 46.6643 36.1031C47.607 35.1135 48.7327 34.3336 50.0402 33.7638C51.3471 33.1941 52.796 32.9095 54.3864 32.9095C56.1654 32.9095 57.715 33.2553 59.0362 33.947C60.3565 34.6384 61.4415 35.5684 62.2909 36.7338C63.1398 37.9003 63.7526 39.2297 64.1308 40.7209C64.5081 42.2131 64.6423 43.7724 64.5352 45.3999H49.4545C49.535 47.271 50.006 48.6279 50.8691 49.4683V49.4683ZM57.3581 38.4017C56.671 37.6426 55.6261 37.2625 54.225 37.2625C53.3084 37.2625 52.5472 37.4188 51.9409 37.7304C51.3343 38.0428 50.8489 38.4285 50.4849 38.8899C50.1214 39.3514 49.8648 39.8398 49.717 40.3546C49.5686 40.8701 49.4809 41.3313 49.454 41.738H58.7934C58.524 40.2731 58.0457 39.1613 57.3581 38.4017V38.4017ZM48.4736 27.4673H60.1426V30.7232H48.4736V27.4673Z" fill="white"/>
</svg>
