<svg width="68" height="68" viewBox="0 0 68 68" fill="none" xmlns="http://www.w3.org/2000/svg">
<rect width="68" height="68" fill="#1769FF"/>
<path d="M25.8092 21.2754C27.0136 21.2754 28.1116 21.3822 29.1034 21.5963C30.0952 21.8101 30.9453 22.161 31.6536 22.6476C32.362 23.1348 32.9111 23.7824 33.3007 24.5905C33.6904 25.3986 33.8852 26.3965 33.8852 27.5846C33.8852 28.8679 33.5959 29.9372 33.0174 30.7925C32.4386 31.6479 31.5829 32.3488 30.4495 32.8955C32.0079 33.347 33.1708 34.1375 33.9385 35.2657C34.7053 36.3947 35.0899 37.7554 35.0899 39.3471C35.0899 40.6302 34.842 41.7414 34.3458 42.6802C33.8502 43.6192 33.1827 44.3854 32.3449 44.9786C31.5065 45.5731 30.55 46.0123 29.4758 46.298C28.3948 46.5837 27.2816 46.7274 26.1639 46.7253H13.908V21.2754H25.8092ZM25.1009 31.5769C26.0927 31.5769 26.9072 31.3394 27.545 30.8639C28.1825 30.3888 28.5012 29.6163 28.5012 28.547C28.5012 27.9532 28.3951 27.4658 28.1826 27.0856C27.97 26.7057 27.6867 26.408 27.3325 26.1946C26.9782 25.9805 26.5709 25.8326 26.1104 25.7488C25.6369 25.6647 25.1568 25.623 24.6759 25.6242H19.4691V31.5771H25.1009V31.5769ZM25.4196 42.3767C25.9625 42.3767 26.4822 42.3231 26.978 42.2163C27.4738 42.1092 27.9105 41.931 28.2887 41.6813C28.6661 41.4322 28.9673 41.0933 29.1919 40.6654C29.416 40.2379 29.5282 39.6914 29.5282 39.0258C29.5282 37.7193 29.1619 36.7866 28.4303 36.228C27.698 35.6696 26.7299 35.3901 25.5258 35.3901H19.4691V42.3763L25.4196 42.3767V42.3767ZM42.0882 41.8422C42.8438 42.5794 43.9301 42.9471 45.347 42.9471C46.3619 42.9471 47.2359 42.6921 47.9678 42.1809C48.6998 41.6706 49.1486 41.1296 49.3139 40.559H53.7414C53.0332 42.7688 51.9465 44.3494 50.4828 45.2995C49.0183 46.2503 47.2472 46.7253 45.1694 46.7253C43.729 46.7253 42.43 46.4937 41.2731 46.0301C40.1158 45.567 39.1356 44.9074 38.3334 44.052C37.5304 43.1967 36.9105 42.1756 36.4736 40.9869C36.0365 39.7991 35.8186 38.4918 35.8186 37.066C35.8186 35.6882 36.0424 34.405 36.4915 33.2167C36.9397 32.0289 37.577 31.0011 38.4044 30.1333C39.2303 29.2663 40.2165 28.583 41.362 28.0839C42.507 27.5848 43.7763 27.3355 45.1696 27.3355C46.7282 27.3355 48.0858 27.6384 49.2433 28.2444C50.4 28.8501 51.3506 29.6649 52.0947 30.6858C52.8384 31.7078 53.3753 32.8724 53.7066 34.1788C54.0371 35.486 54.1548 36.8522 54.0609 38.278H40.8489C40.9194 39.9172 41.332 41.1059 42.0882 41.8422V41.8422ZM47.7731 32.147C47.1712 31.482 46.2558 31.149 45.0283 31.149C44.2253 31.149 43.5583 31.2859 43.0271 31.5589C42.4957 31.8326 42.0705 32.1705 41.7516 32.5748C41.4331 32.979 41.2084 33.4069 41.0789 33.8579C40.9488 34.3095 40.872 34.7136 40.8485 35.0699H49.0306C48.7945 33.7865 48.3755 32.8125 47.7731 32.147V32.147ZM39.9895 22.5677H50.2126V25.4201H39.9895V22.5677Z" fill="white"/>
</svg>
