<svg width="82" height="82" viewBox="0 0 82 82" fill="none" xmlns="http://www.w3.org/2000/svg">
<rect y="0.500977" width="81.4992" height="81.4992" fill="#FF458D"/>
<path d="M16.7158 40.9701C16.7158 36.5611 17.8019 32.4927 19.9739 28.7645C22.1459 25.0364 25.096 22.0863 28.8241 19.9143C32.5522 17.7423 36.6208 16.6562 41.0296 16.6562C45.4385 16.6562 49.5071 17.7423 53.2351 19.9143C56.9633 22.0863 59.9134 25.0364 62.0854 28.7645C64.2574 32.4927 65.3434 36.5611 65.3434 40.9701C65.3434 45.379 64.2574 49.4474 62.0854 53.1756C59.9134 56.9037 56.9633 59.8538 53.2351 62.0258C49.5071 64.1978 45.4385 65.2839 41.0296 65.2839C36.6208 65.2839 32.5522 64.1978 28.8241 62.0258C25.096 59.8538 22.1459 56.9037 19.9739 53.1756C17.8019 49.4474 16.7158 45.379 16.7158 40.9701ZM20.7519 40.9701C20.7519 46.0273 22.4539 50.4849 25.8578 54.3426C27.4139 51.2953 29.8777 48.3939 33.2492 45.6383C36.6208 42.8827 39.9112 41.1484 43.1206 40.4351C42.6343 39.3005 42.1643 38.2793 41.7104 37.3716C36.1345 39.1546 30.1047 40.0461 23.6209 40.0461C22.3566 40.0461 21.4165 40.0299 20.8005 39.9975C20.8005 40.1272 20.7925 40.2893 20.7762 40.4838C20.76 40.6783 20.7519 40.8404 20.7519 40.9701ZM21.3841 35.9614C22.0973 36.0262 23.1509 36.0587 24.5449 36.0587C29.9588 36.0587 35.0971 35.3292 39.9598 33.8704C37.496 29.4939 34.7891 25.8469 31.839 22.9292C29.278 24.226 27.0816 26.0252 25.25 28.3269C23.4184 30.6286 22.1297 33.1734 21.3841 35.9614ZM28.6296 56.9685C32.2929 59.8214 36.4262 61.2478 41.0296 61.2478C43.4286 61.2478 45.8114 60.7939 48.1779 59.8862C47.5295 54.3426 46.2652 48.9774 44.3849 43.7905C41.4024 44.4388 38.3957 46.0759 35.3645 48.7018C32.3334 51.3277 30.0884 54.0833 28.6296 56.9685ZM36.0696 21.3731C38.9224 24.3232 41.5645 28.0027 43.9959 32.4116C48.4048 30.5637 51.7277 28.2134 53.9646 25.3606C50.204 22.2484 45.8924 20.6923 41.0296 20.6923C39.3763 20.6923 37.7229 20.9193 36.0696 21.3731ZM45.7465 35.8642C46.2328 36.9015 46.7839 38.2145 47.3998 39.803C49.7988 39.576 52.4085 39.4626 55.2289 39.4626C57.2389 39.4626 59.2326 39.5112 61.2101 39.6085C60.9507 35.1996 59.3622 31.277 56.4446 27.8406C54.3374 30.9852 50.7714 33.6597 45.7465 35.8642ZM48.6155 43.2069C50.2689 48.0049 51.3873 52.9324 51.9708 57.9897C54.5319 56.3364 56.6229 54.213 58.2438 51.6195C59.8647 49.026 60.8373 46.2218 61.1614 43.2069C58.7949 43.0448 56.6391 42.9638 54.694 42.9638C52.911 42.9638 50.8848 43.0448 48.6155 43.2069Z" fill="white"/>
</svg>
