<svg width="181" height="180" viewBox="0 0 181 180" fill="none" xmlns="http://www.w3.org/2000/svg">
<rect x="0.5" width="180" height="180" fill="#E5E1FF"/>
<path d="M28.2959 42C28.2959 29.8497 38.1456 20 50.2959 20H130.705C142.855 20 152.705 29.8497 152.705 42V138C152.705 150.15 142.855 160 130.705 160H50.2959C38.1456 160 28.2959 150.15 28.2959 138V42Z" fill="white"/>
<rect x="76.7617" y="138.87" width="28.1594" height="8" rx="2.91304" fill="#7051ef"/>
<rect x="96.1816" y="38.855" width="39.8116" height="48.5507" rx="9.62" fill="#A290E8"/>
<rect x="44.7178" y="50.5071" width="39.8116" height="5.82609" rx="2.91304" fill="#D1C9EC"/>
<rect x="44.7178" y="59.2461" width="39.8116" height="5.82609" rx="2.91304" fill="#D1C9EC"/>
<rect x="45.0371" y="70.2898" width="20" height="7" rx="2.42754" fill="#7051ef"/>
<rect x="45.0371" y="127.217" width="25.2464" height="5.82609" rx="2.91304" fill="#E9E5F9"/>
<rect x="77.877" y="127.217" width="25.2464" height="5.82609" rx="2.91304" fill="#E9E5F9"/>
<rect x="111.037" y="127.217" width="25.2464" height="5.82609" rx="2.91304" fill="#E9E5F9"/>
<circle cx="48.1163" cy="37.3986" r="3.39855" fill="#DDD7F3"/>
<circle cx="57.8263" cy="37.3986" r="3.39855" fill="#DDD7F3"/>
<circle cx="67.5362" cy="37.3986" r="3.39855" fill="#DDD7F3"/>
<rect x="78.5" y="100.29" width="24" height="24" rx="6" fill="#A190E8"/>
<rect x="112.269" y="100.29" width="24" height="24" rx="6" fill="#A190E8"/>
<rect x="45.4131" y="100.29" width="24" height="24" rx="6" fill="#A190E8"/>
</svg>
