<svg width="223" height="36" viewBox="0 0 223 36" fill="none" xmlns="http://www.w3.org/2000/svg">
<path d="M28.2289 15.5651C23.5148 15.5651 19.6882 11.7531 19.6882 7.06804C19.6882 6.45695 19.761 5.87496 19.8774 5.29297H8.52855C4.13452 5.29297 0.569824 8.84311 0.569824 13.208V27.8306C0.569824 32.21 4.13452 35.7456 8.52855 35.7456H23.2238C27.6324 35.7456 31.1825 32.1955 31.1825 27.8306V15.0268C30.2805 15.3614 29.2765 15.5651 28.2289 15.5651Z" fill="#CBBEFF"/>
<path d="M31.1967 27.8306V15.0268C30.2801 15.3614 29.2761 15.5651 28.2431 15.5651C23.529 15.5651 19.7024 11.7531 19.7024 7.06804C19.7024 6.45695 19.7751 5.87496 19.8915 5.29297H8.54271C4.17778 5.29297 0.642183 8.78491 0.583984 13.1207C11.0598 17.442 21.8267 22.6945 31.1385 28.8345C31.1676 28.4999 31.1967 28.1652 31.1967 27.8306Z" fill="#CBBEFF"/>
<path d="M28.8834 12.6294C32.3026 12.6294 35.067 9.87951 35.067 6.47487C35.067 3.08477 32.3026 0.320312 28.8834 0.320312C25.4642 0.320312 22.6997 3.07022 22.6997 6.47487C22.6997 9.86496 25.4642 12.6294 28.8834 12.6294Z" fill="#7051ef"/>
<path d="M66.3482 20.4585C66.1048 21.4928 65.6942 22.4967 65.1162 23.4702C64.5381 24.4133 63.8232 25.2651 62.9715 26.0256C62.1197 26.7557 61.1462 27.3489 60.051 27.8052C58.9558 28.2311 57.7846 28.4441 56.5373 28.4441C55.1075 28.4441 53.7538 28.1703 52.4761 27.6227C51.2288 27.0447 50.1184 26.269 49.145 25.2955C48.2019 24.322 47.4414 23.1964 46.8634 21.9187C46.3158 20.6106 46.042 19.2112 46.042 17.7206C46.042 16.2299 46.3158 14.8458 46.8634 13.5681C47.4414 12.26 48.2019 11.1192 49.145 10.1457C50.1184 9.17219 51.2288 8.41166 52.4761 7.86408C53.7538 7.28607 55.1075 6.99707 56.5373 6.99707C57.7846 6.99707 58.9558 7.22523 60.051 7.68155C61.1462 8.10745 62.1197 8.70066 62.9715 9.4612C63.8232 10.1913 64.5381 11.0431 65.1162 12.0166C65.6942 12.9596 66.1048 13.9483 66.3482 14.9827H61.1005C60.8572 14.4351 60.5225 13.9483 60.0966 13.5224C59.7316 13.1574 59.26 12.8228 58.682 12.5185C58.104 12.1839 57.3891 12.0166 56.5373 12.0166C55.0467 12.0166 53.7994 12.5337 52.7955 13.5681C51.7916 14.6024 51.2897 15.9866 51.2897 17.7206C51.2897 19.4546 51.7916 20.8388 52.7955 21.8731C53.7994 22.9074 55.0467 23.4246 56.5373 23.4246C57.3891 23.4246 58.104 23.2725 58.682 22.9683C59.26 22.664 59.7316 22.3294 60.0966 21.9644C60.5225 21.5385 60.8572 21.0365 61.1005 20.4585H66.3482Z" fill="#3A395E"/>
<path d="M75.0183 17.7206C75.0183 19.4546 75.5202 20.8388 76.5241 21.8731C77.528 22.9074 78.7753 23.4246 80.266 23.4246C81.7566 23.4246 83.0039 22.9074 84.0078 21.8731C85.0117 20.8388 85.5136 19.4546 85.5136 17.7206C85.5136 15.9866 85.0117 14.6024 84.0078 13.5681C83.0039 12.5337 81.7566 12.0166 80.266 12.0166C78.7753 12.0166 77.528 12.5337 76.5241 13.5681C75.5202 14.6024 75.0183 15.9866 75.0183 17.7206ZM90.7613 17.7206C90.7613 19.2112 90.4723 20.6106 89.8943 21.9187C89.3467 23.1964 88.5862 24.322 87.6127 25.2955C86.6697 26.269 85.5593 27.0447 84.2816 27.6227C83.0343 28.1703 81.6958 28.4441 80.266 28.4441C78.8362 28.4441 77.4824 28.1703 76.2047 27.6227C74.9574 27.0447 73.8471 26.269 72.8736 25.2955C71.9305 24.322 71.17 23.1964 70.592 21.9187C70.0444 20.6106 69.7706 19.2112 69.7706 17.7206C69.7706 16.2299 70.0444 14.8458 70.592 13.5681C71.17 12.26 71.9305 11.1192 72.8736 10.1457C73.8471 9.17219 74.9574 8.41166 76.2047 7.86408C77.4824 7.28607 78.8362 6.99707 80.266 6.99707C81.6958 6.99707 83.0343 7.28607 84.2816 7.86408C85.5593 8.41166 86.6697 9.17219 87.6127 10.1457C88.5862 11.1192 89.3467 12.26 89.8943 13.5681C90.4723 14.8458 90.7613 16.2299 90.7613 17.7206Z" fill="#3A395E"/>
<path d="M105.342 6.99707C106.407 6.99707 107.32 7.14918 108.08 7.45339C108.841 7.72718 109.464 8.0314 109.951 8.36603C110.499 8.76151 110.94 9.21783 111.274 9.73499C111.761 9.21783 112.324 8.76151 112.963 8.36603C113.51 8.0314 114.164 7.72718 114.925 7.45339C115.685 7.14918 116.522 6.99707 117.435 6.99707C119.716 6.99707 121.542 7.72718 122.91 9.1874C124.279 10.6476 124.964 12.8075 124.964 15.6671V28.2159H119.716V16.1235C119.716 14.8458 119.366 13.8419 118.667 13.1118C117.997 12.3816 117.206 12.0166 116.294 12.0166C115.381 12.0166 114.575 12.3816 113.875 13.1118C113.206 13.8419 112.871 14.8458 112.871 16.1235V28.2159H107.624V16.1235C107.624 14.8458 107.274 13.8419 106.574 13.1118C105.905 12.3816 105.114 12.0166 104.201 12.0166C103.289 12.0166 102.483 12.3816 101.783 13.1118C101.114 13.8419 100.779 14.8458 100.779 16.1235V28.2159H95.5313V7.22523H99.41L100.323 9.27867C100.749 8.85277 101.22 8.4725 101.737 8.13787C102.163 7.86408 102.68 7.6055 103.289 7.36213C103.897 7.11876 104.582 6.99707 105.342 6.99707Z" fill="#3A395E"/>
<path d="M141.391 6.99707C142.7 6.99707 143.947 7.27086 145.133 7.81845C146.32 8.33561 147.354 9.08093 148.236 10.0544C149.149 10.9975 149.864 12.1231 150.381 13.4312C150.928 14.7393 151.202 16.1691 151.202 17.7206C151.202 19.2721 150.928 20.7019 150.381 22.01C149.864 23.3181 149.149 24.4589 148.236 25.4324C147.354 26.3754 146.32 27.1208 145.133 27.6684C143.947 28.1855 142.7 28.4441 141.391 28.4441C140.509 28.4441 139.733 28.3376 139.064 28.1247C138.425 27.9117 137.863 27.6836 137.376 27.4402C136.828 27.136 136.341 26.7861 135.916 26.3907V35.517H130.668V7.22523H134.547L135.459 9.27867C135.916 8.85277 136.448 8.4725 137.056 8.13787C137.574 7.86408 138.197 7.6055 138.927 7.36213C139.657 7.11876 140.479 6.99707 141.391 6.99707ZM135.459 17.7206C135.459 19.4546 135.961 20.8388 136.965 21.8731C137.969 22.9074 139.216 23.4246 140.707 23.4246C142.198 23.4246 143.445 22.9074 144.449 21.8731C145.453 20.8388 145.955 19.4546 145.955 17.7206C145.955 15.9866 145.453 14.6024 144.449 13.5681C143.445 12.5337 142.198 12.0166 140.707 12.0166C139.216 12.0166 137.969 12.5337 136.965 13.5681C135.961 14.6024 135.459 15.9866 135.459 17.7206Z" fill="#3A395E"/>
<path d="M164.671 6.99707C165.857 6.99707 166.952 7.21002 167.956 7.63592C168.96 8.03139 169.827 8.59419 170.557 9.3243C171.287 10.0544 171.85 10.9214 172.246 11.9253C172.672 12.9292 172.885 14.0244 172.885 15.2108V28.2159H169.006L168.093 26.1625C167.606 26.5884 167.074 26.9687 166.496 27.3033C165.979 27.6075 165.355 27.8813 164.625 28.1247C163.895 28.3376 163.074 28.4441 162.161 28.4441C159.879 28.4441 158.13 27.8965 156.913 26.8013C155.697 25.6758 155.088 24.246 155.088 22.5119C155.088 21.4776 155.286 20.5346 155.681 19.6828C156.107 18.8005 156.807 18.0552 157.78 17.4468C158.754 16.8079 160.032 16.3212 161.613 15.9866C163.226 15.6215 165.234 15.439 167.637 15.439C167.637 14.283 167.317 13.3855 166.679 12.7467C166.07 12.1079 165.249 11.7884 164.215 11.7884C163.515 11.7884 162.952 11.9101 162.526 12.1535C162.131 12.3969 161.811 12.6554 161.568 12.9292C161.294 13.2639 161.112 13.6441 161.02 14.07H155.773C155.894 13.0965 156.168 12.1839 156.594 11.3321C157.05 10.4803 157.659 9.73499 158.419 9.09614C159.18 8.45729 160.077 7.95534 161.112 7.59029C162.176 7.19481 163.363 6.99707 164.671 6.99707ZM163.074 24.3372C164.443 24.3372 165.538 23.9417 166.359 23.1508C167.211 22.3294 167.637 21.2799 167.637 20.0022V19.0895C166.085 19.0895 164.838 19.1656 163.895 19.3177C162.952 19.4394 162.207 19.6371 161.659 19.9109C161.142 20.1543 160.792 20.4585 160.61 20.8236C160.427 21.1886 160.336 21.5993 160.336 22.0556C160.336 22.6336 160.594 23.166 161.112 23.6527C161.629 24.1091 162.283 24.3372 163.074 24.3372Z" fill="#3A395E"/>
<path d="M189.294 6.99707C190.542 6.99707 191.682 7.21002 192.717 7.63592C193.751 8.03139 194.633 8.62461 195.363 9.41556C196.124 10.1761 196.702 11.1039 197.097 12.1991C197.523 13.2943 197.736 14.5263 197.736 15.8953V28.2159H192.489V16.5798C192.489 15.2108 192.078 14.1157 191.256 13.2943C190.465 12.4425 189.431 12.0166 188.153 12.0166C186.876 12.0166 185.826 12.4425 185.005 13.2943C184.214 14.1157 183.818 15.2108 183.818 16.5798V28.2159H178.571V7.22523H182.449L183.362 9.27867C183.879 8.85277 184.442 8.4725 185.05 8.13787C185.568 7.86408 186.176 7.6055 186.876 7.36213C187.606 7.11876 188.412 6.99707 189.294 6.99707Z" fill="#3A395E"/>
<path d="M201.176 7.22523H206.652L211.9 20.9148L216.691 7.22523H222.167C220.676 11.0583 219.323 14.5263 218.106 17.6293C217.589 18.9679 217.072 20.276 216.554 21.5537C216.068 22.8314 215.627 24.0026 215.231 25.0673C214.836 26.1017 214.501 26.9687 214.227 27.6684C213.953 28.368 213.786 28.7787 213.725 28.9004C213.208 30.1477 212.691 31.1972 212.174 32.049C211.687 32.9312 211.155 33.6461 210.577 34.1937C209.999 34.7413 209.375 35.1368 208.706 35.3802C208.036 35.6235 207.276 35.7452 206.424 35.7452C206.181 35.7452 205.937 35.73 205.694 35.6996C205.481 35.6996 205.298 35.6844 205.146 35.6539C204.933 35.6235 204.751 35.5779 204.599 35.517V31.182C205.755 31.182 206.637 30.9234 207.245 30.4063C207.884 29.8891 208.371 29.235 208.706 28.4441L209.162 27.3033L201.176 7.22523Z" fill="#3A395E"/>
</svg>
