<svg width="219" height="36" viewBox="0 0 219 36" fill="none" xmlns="http://www.w3.org/2000/svg">
<path d="M75.9766 19.4824C74.3932 22.051 72.1414 23.5287 69.221 23.5287C64.9988 23.5287 61.9025 20.1158 61.9025 15.7176C61.9025 11.3195 64.8581 7.94174 69.2914 7.94174C72.1062 7.94174 74.6395 9.52507 75.9062 11.9177L79.9877 8.68063C77.9118 4.98619 74.1469 2.76953 69.3618 2.76953C61.6914 2.76953 56.3081 8.46952 56.3081 15.7176C56.3081 22.9658 61.797 28.7009 69.2914 28.7009C74.0062 28.7009 77.9469 26.2028 80.0932 22.6491L75.9766 19.4824Z" fill="#3A395E"/>
<path d="M91.27 9.80655C85.6404 9.80655 81.5941 13.888 81.5941 19.2362C81.5941 24.5491 85.6404 28.7009 91.27 28.7009C96.8996 28.7009 100.946 24.5491 100.946 19.2362C100.946 13.888 96.8996 9.80655 91.27 9.80655ZM91.27 14.5565C93.6978 14.5565 95.5274 16.4213 95.5274 19.2362C95.5274 22.051 93.6978 23.951 91.27 23.951C88.8422 23.951 87.0126 22.051 87.0126 19.2362C87.0126 16.4213 88.8422 14.5565 91.27 14.5565Z" fill="#3A395E"/>
<path d="M104.442 10.2288V28.2787H109.79V18.8843C109.79 16.5269 111.021 14.5214 113.273 14.5214C115.243 14.5214 116.51 15.7528 116.51 18.1102V28.2787H121.858V18.8843C121.858 16.5269 123.09 14.5214 125.342 14.5214C127.312 14.5214 128.543 15.7528 128.543 18.1102V28.2787H133.892V17.301C133.892 12.6214 131.253 9.80655 126.925 9.80655C123.864 9.80655 122.14 11.1436 120.838 12.9732C119.606 10.9677 117.636 9.80655 114.856 9.80655C112.499 9.80655 110.74 10.7214 109.579 12.551V10.2288H104.442Z" fill="#3A395E"/>
<path d="M147.923 14.5214C150.21 14.5214 152.11 16.3862 152.11 19.3065C152.11 22.1213 150.21 23.9861 147.923 23.9861C145.531 23.9861 143.666 22.1565 143.666 19.3065C143.666 16.351 145.531 14.5214 147.923 14.5214ZM143.42 10.2288H138.458V35.3157H143.807V26.3084C144.932 27.9972 147.079 28.7009 149.014 28.7009C153.94 28.7009 157.494 24.6195 157.494 19.2362C157.494 13.6769 153.658 9.80655 149.049 9.80655C147.29 9.80655 144.827 10.5454 143.42 12.7269V10.2288Z" fill="#3A395E"/>
<path d="M170.358 17.0547L165.432 18.0047C161.632 18.8139 159.556 20.6436 159.556 23.3176C159.556 26.4491 162.019 28.7009 165.538 28.7009C167.93 28.7009 169.69 27.6454 170.534 26.0621V28.2787H175.495V16.9139C175.495 12.5158 172.504 9.80655 167.473 9.80655C164.095 9.80655 161.386 11.214 159.732 13.2195L162.512 16.5973C163.603 15.3658 165.151 14.4158 167.156 14.4158C168.986 14.4158 170.358 15.1195 170.358 16.9139V17.0547ZM166.734 24.725C165.467 24.725 164.658 24.0213 164.658 23.001C164.658 22.0158 165.362 21.3824 166.804 21.1361L170.393 20.4324V20.9602C170.393 23.1065 168.951 24.725 166.734 24.725Z" fill="#3A395E"/>
<path d="M180 10.2288V28.2787H185.348V18.8843C185.348 16.5269 186.58 14.5214 188.902 14.5214C190.872 14.5214 192.139 15.7528 192.139 18.1102V28.2787H197.487V17.301C197.487 12.6214 194.813 9.80655 190.485 9.80655C188.058 9.80655 186.298 10.7214 185.137 12.551V10.2288H180Z" fill="#3A395E"/>
<path d="M206.22 27.6102L206.009 28.2084C205.235 30.7769 203.933 31.2343 202.525 31.2343C201.927 31.2343 201.012 31.1639 200.062 30.6361V35.0694C200.872 35.4565 202.033 35.738 203.299 35.738C206.712 35.738 208.894 34.1194 210.688 29.7565L218.57 10.2288H213.116L208.894 22.051L204.707 10.2288H199.112L206.22 27.6102Z" fill="#3A395E"/>
<path d="M24.3327 0.326172H18.4695C17.9516 0.326172 17.5317 0.746 17.5317 1.26389V31.4079C17.5317 31.9258 17.9516 32.3456 18.4695 32.3456H24.3327C24.8506 32.3456 25.2704 31.9258 25.2704 31.4079V1.26389C25.2704 0.746002 24.8506 0.326172 24.3327 0.326172Z" fill="#CBBEFF"/>
<path d="M35.6533 32.3458C39.2864 32.3458 42.2315 29.4006 42.2315 25.7676C42.2315 22.1346 39.2864 19.1895 35.6533 19.1895C32.0203 19.1895 29.0752 22.1346 29.0752 25.7676C29.0752 29.4006 32.0203 32.3458 35.6533 32.3458Z" fill="#7051ef"/>
<path d="M35.6533 13.4825C39.2864 13.4825 42.2315 10.5373 42.2315 6.90433C42.2315 3.27131 39.2864 0.326172 35.6533 0.326172C32.0203 0.326172 29.0752 3.27131 29.0752 6.90433C29.0752 10.5373 32.0203 13.4825 35.6533 13.4825Z" fill="#7051ef"/>
<path d="M7.14895 32.3458C10.782 32.3458 13.7271 29.4006 13.7271 25.7676C13.7271 22.1346 10.782 19.1895 7.14895 19.1895C3.51594 19.1895 0.570801 22.1346 0.570801 25.7676C0.570801 29.4006 3.51594 32.3458 7.14895 32.3458Z" fill="#7051ef"/>
</svg>
