<svg width="188" height="44" viewBox="0 0 188 44" fill="none" xmlns="http://www.w3.org/2000/svg">
<path d="M69.4292 10.0462V17.3248C68.33 16.2256 66.696 15.6017 64.7649 15.6017C60.16 15.6017 56.5356 19.3153 56.5356 24.0687C56.5356 28.7924 60.0709 32.5357 64.7946 32.5357C66.7851 32.5357 68.5676 31.8821 69.7263 30.6343V32.1792H73.8855V10.0462H69.4292ZM65.3294 28.525C62.8933 28.525 61.1404 26.6831 61.1404 24.0687C61.1404 21.4841 62.8933 19.6124 65.3294 19.6124C67.7358 19.6124 69.4292 21.4543 69.4292 24.0687C69.4292 26.7128 67.7358 28.525 65.3294 28.525ZM92.2246 23.5934C92.2246 19.1074 88.719 15.6017 84.1735 15.6017C79.539 15.6017 75.9739 19.1965 75.9739 24.039C75.9739 28.733 79.331 32.5357 84.4706 32.5357C87.798 32.5357 90.4718 30.9611 91.4522 28.5844L87.8871 26.891C87.2632 27.9903 86.1046 28.6736 84.53 28.6736C82.3316 28.6736 80.8759 27.3664 80.6085 25.3165H92.0166C92.1652 24.8708 92.2246 24.247 92.2246 23.5934ZM80.6976 22.0485C81.1432 20.1769 82.4207 19.1668 84.1735 19.1668C86.0155 19.1668 87.3227 20.3254 87.5009 22.0485H80.6976ZM100.577 32.5357C104.469 32.5357 107.173 30.4858 107.173 27.4852C107.173 25.1679 105.628 23.5042 102.746 22.7318L99.7453 21.9297C99.2106 21.7811 98.0816 21.4841 98.0816 20.5037C98.0816 19.6718 98.8541 19.1668 100.161 19.1668C101.914 19.1668 103.31 19.9986 103.845 21.3949L107.173 19.8501C106.133 17.206 103.489 15.6017 100.161 15.6017C96.3585 15.6017 93.7739 17.6516 93.7739 20.6522C93.7739 22.8804 95.1999 24.6035 98.141 25.3759L100.993 26.1186C101.558 26.2672 102.865 26.594 102.865 27.6635C102.865 28.5547 101.973 29.1192 100.577 29.1192C98.7352 29.1192 97.2795 28.1388 96.4179 26.3266L93.1203 27.8714C94.1304 30.8126 97.0418 32.5357 100.577 32.5357ZM109.243 14.5025H113.699V10.0462H109.243V14.5025ZM109.243 32.1792H113.699V15.9582H109.243V32.1792ZM128.673 15.9582V17.6813C127.544 16.3742 125.88 15.6017 123.771 15.6017C119.641 15.6017 115.779 18.5429 115.779 23.4448C115.779 28.2279 119.463 31.3771 123.86 31.3771C125.672 31.3771 127.247 30.8126 128.375 29.7431V31.3176C128.375 33.427 126.712 34.7639 124.484 34.7639C122.523 34.7639 121.156 33.7241 120.651 31.9712L116.848 33.8429C117.799 36.8138 120.77 38.7745 124.484 38.7745C128.999 38.7745 132.832 35.8631 132.832 31.3176V15.9582H128.673ZM124.424 27.3367C122.137 27.3367 120.384 25.7621 120.384 23.5042C120.384 21.187 122.196 19.6124 124.424 19.6124C126.652 19.6124 128.375 21.187 128.375 23.5042C128.375 25.7621 126.712 27.3367 124.424 27.3367ZM144.494 15.6017C142.444 15.6017 140.781 16.3444 139.949 17.919V15.9582H135.789V32.1792H140.246V22.7021C140.246 20.8305 141.464 19.6124 143.217 19.6124C144.969 19.6124 146.187 20.8305 146.187 22.7021V32.1792H150.644V21.7514C150.644 18.0675 148.148 15.6017 144.494 15.6017ZM168.672 23.5934C168.672 19.1074 165.167 15.6017 160.621 15.6017C155.987 15.6017 152.422 19.1965 152.422 24.039C152.422 28.733 155.779 32.5357 160.918 32.5357C164.246 32.5357 166.92 30.9611 167.9 28.5844L164.335 26.891C163.711 27.9903 162.552 28.6736 160.978 28.6736C158.779 28.6736 157.324 27.3664 157.056 25.3165H168.464C168.613 24.8708 168.672 24.247 168.672 23.5934ZM157.145 22.0485C157.591 20.1769 158.868 19.1668 160.621 19.1668C162.463 19.1668 163.77 20.3254 163.949 22.0485H157.145ZM179.015 15.78C177.025 15.78 175.45 16.3742 174.619 18.3943V15.9582H170.459V32.1792H174.916V23.4448C174.916 21.0384 176.401 19.6421 178.57 19.6421H180.709V15.78H179.015Z" fill="#3A395E"/>
<circle cx="185.117" cy="29.9291" r="2.81287" fill="#7051ef"/>
<rect width="43.0425" height="43.0425" rx="15" fill="#7051ef"/>
<path d="M30.9088 24.0863C30.4302 25.8382 29.4708 27.4212 28.1393 28.6562C26.8078 29.8913 25.1573 30.7291 23.3744 31.0749C21.5915 31.4207 19.7474 31.2607 18.0507 30.613C16.354 29.9653 14.8724 28.8558 13.7735 27.4099C12.6746 25.964 12.0022 24.2394 11.8324 22.4313C11.6626 20.6231 12.0021 18.8035 12.8126 17.1783C13.6231 15.5531 14.8723 14.1871 16.4187 13.2348C17.9651 12.2826 19.7472 11.7821 21.5632 11.7899" stroke="white" stroke-width="6.12643" stroke-linecap="round"/>
<circle cx="29.7651" cy="14.6655" r="3.51703" fill="white"/>
</svg>
