<svg width="120" height="120" viewBox="0 0 120 120" fill="none" xmlns="http://www.w3.org/2000/svg">
<rect width="120" height="120" fill="white"/>
<rect width="120" height="120" rx="30" fill="#F7F7FF"/>
<path d="M60 17C49 17 40 27.6071 40 40.5714V46C40 48.2091 41.7909 50 44 50V50C46.2091 50 48 48.2091 48 46V40.5714C48 32.7929 53.4 26.4286 60 26.4286C65.4343 26.4286 70.0551 30.7433 71.5178 36.6096C72.0523 38.7531 73.7909 40.5714 76 40.5714V40.5714C78.2091 40.5714 80.0311 38.7696 79.7117 36.5837C78.0922 25.5009 69.8475 17 60 17Z" fill="#6E6D8F"/>
<path d="M85.5 102H34.5C29.825 102 26 98.175 26 93.5V55.25C26 50.575 29.825 46.75 34.5 46.75H85.5C90.175 46.75 94 50.575 94 55.25V93.5C94 98.175 90.175 102 85.5 102Z" fill="#7051ef"/>
<path d="M60 80.75C63.5208 80.75 66.375 77.8958 66.375 74.375C66.375 70.8542 63.5208 68 60 68C56.4792 68 53.625 70.8542 53.625 74.375C53.625 77.8958 56.4792 80.75 60 80.75Z" fill="#462FA0"/>
</svg>
